<?xml version="1.0" encoding="UTF-8" standalone="no"?>
<!-- Created with Inkscape (http://www.inkscape.org/) -->

<svg
   xmlns:dc="http://purl.org/dc/elements/1.1/"
   xmlns:cc="http://creativecommons.org/ns#"
   xmlns:rdf="http://www.w3.org/1999/02/22-rdf-syntax-ns#"
   xmlns:svg="http://www.w3.org/2000/svg"
   xmlns="http://www.w3.org/2000/svg"
   xmlns:sodipodi="http://sodipodi.sourceforge.net/DTD/sodipodi-0.dtd"
   xmlns:inkscape="http://www.inkscape.org/namespaces/inkscape"
   width="500"
   height="500"
   id="svg2"
   version="1.1"
   inkscape:version="0.47 r22583"
   sodipodi:docname="bottom.svg">
  <defs
     id="defs4">
    <inkscape:perspective
       sodipodi:type="inkscape:persp3d"
       inkscape:vp_x="0 : 526.18109 : 1"
       inkscape:vp_y="0 : 1000 : 0"
       inkscape:vp_z="744.09448 : 526.18109 : 1"
       inkscape:persp3d-origin="372.04724 : 350.78739 : 1"
       id="perspective10" />
    <inkscape:perspective
       id="perspective2902"
       inkscape:persp3d-origin="0.5 : 0.33333333 : 1"
       inkscape:vp_z="1 : 0.5 : 1"
       inkscape:vp_y="0 : 1000 : 0"
       inkscape:vp_x="0 : 0.5 : 1"
       sodipodi:type="inkscape:persp3d" />
    <inkscape:perspective
       id="perspective3796"
       inkscape:persp3d-origin="0.5 : 0.33333333 : 1"
       inkscape:vp_z="1 : 0.5 : 1"
       inkscape:vp_y="0 : 1000 : 0"
       inkscape:vp_x="0 : 0.5 : 1"
       sodipodi:type="inkscape:persp3d" />
    <inkscape:perspective
       id="perspective3911"
       inkscape:persp3d-origin="0.5 : 0.33333333 : 1"
       inkscape:vp_z="1 : 0.5 : 1"
       inkscape:vp_y="0 : 1000 : 0"
       inkscape:vp_x="0 : 0.5 : 1"
       sodipodi:type="inkscape:persp3d" />
  </defs>
  <sodipodi:namedview
     id="base"
     pagecolor="#ffffff"
     bordercolor="#666666"
     borderopacity="1.0"
     inkscape:pageopacity="0.0"
     inkscape:pageshadow="2"
     inkscape:zoom="1.211981"
     inkscape:cx="339.26643"
     inkscape:cy="309.80241"
     inkscape:document-units="px"
     inkscape:current-layer="layer1"
     showgrid="false"
     inkscape:window-width="1920"
     inkscape:window-height="1125"
     inkscape:window-x="0"
     inkscape:window-y="24"
     inkscape:window-maximized="1" />
  <metadata
     id="metadata7">
    <rdf:RDF>
      <cc:Work
         rdf:about="">
        <dc:format>image/svg+xml</dc:format>
        <dc:type
           rdf:resource="http://purl.org/dc/dcmitype/StillImage" />
        <dc:title></dc:title>
      </cc:Work>
    </rdf:RDF>
  </metadata>
  <g
     inkscape:label="Layer 1"
     inkscape:groupmode="layer"
     id="layer1"
     transform="translate(0,-552.36218)">
    <path
       style="fill:#000000;stroke:#ffffff;stroke-width:5;stroke-linecap:butt;stroke-linejoin:miter;stroke-opacity:1;stroke-miterlimit:4;stroke-dasharray:none;fill-opacity:1"
       d="m 94.060879,312.70334 c 0,0 -10.359239,10.55318 -15.252122,9.75099 -7.307893,-1.19812 -8.692821,-23.49448 -8.692821,-23.49448 2.792744,-27.50854 2.82564,-23.07834 14.202536,-36.53728 0,-24.55146 9.665869,-16.97893 7.992115,-31.40368 -8.005123,-52.40334 15.716073,-106.57109 51.067963,-144.600488 7.00465,-6.061298 12.45105,-14.409406 21.14862,-16.160143 13.21647,-2.660349 24.93782,-2.698163 34.89567,-0.966659 0,0 -3.86664,-16.835087 3.60069,-20.618799 5.60524,-2.840189 12.0473,2.288847 11.94922,-3.902028 -0.11547,-7.28887 5.96453,-20.168749 6.20288,-20.025739 0,0 2.5598,-11.306739 10.14281,-11.068006 5.29028,0.166552 11.0729,-1.649287 18.10204,10.301549 6.86849,11.6777 9.65948,23.044034 9.65948,23.044034 0,0 11.50129,-3.15023 13.97657,2.625438 2.47529,5.775668 3.35044,18.001947 3.35044,18.001947 0,0 12.69096,-2.692526 36.43006,1.01671 13.20152,2.062739 25.7989,7.39654 30.74947,14.822399 28.36701,36.678115 39.24843,40.818465 52.45931,104.624815 2.16714,10.46694 2.47528,35.47911 12.37643,41.25478 15.97643,0.55711 14.91266,8.70365 18.97719,18.97719 -0.82509,19.80229 -1.98337,30.9704 2.14211,38.39626 4.12548,7.42586 9.43105,26.85036 0.8251,27.22815 -16.7107,0.73358 -15.34364,-26.84492 -21.11931,-19.41906 -5.77567,7.42586 -5.14362,52.48779 -13.64339,76.00888 -8.6676,23.9855 -19.51058,47.20488 -37.07925,63.47371 -15.47021,14.32562 -27.77793,34.50982 -101.88566,39.94635 -71.58365,5.25136 -109.07162,-25.54577 -136.70847,-71.15842 -21.19365,-34.97859 -14.60734,-46.1385 -20.919109,-69.49104 -1.844974,-6.82611 -4.950572,-20.62738 -4.950572,-20.62738 z"
       id="path3917"
       transform="translate(0,552.36218)"
       sodipodi:nodetypes="csccccscsscsscscscsccsssssssac" />
    <text
       xml:space="preserve"
       style="font-size:298.59246826px;font-style:normal;font-weight:normal;fill:#b9b9b9;fill-opacity:1;stroke:#ffffff;stroke-width:7.46481228;stroke-opacity:1;font-family:Bitstream Vera Sans"
       x="148.53217"
       y="929.92773"
       id="text3703"><tspan
         sodipodi:role="line"
         id="tspan3705"
         x="148.53217"
         y="929.92773"
         style="stroke-width:7.46481228">B</tspan></text>
  </g>
</svg>
