<?xml version="1.0" encoding="UTF-8" standalone="no"?>
<!-- Created with Inkscape (http://www.inkscape.org/) -->

<svg
   xmlns:dc="http://purl.org/dc/elements/1.1/"
   xmlns:cc="http://creativecommons.org/ns#"
   xmlns:rdf="http://www.w3.org/1999/02/22-rdf-syntax-ns#"
   xmlns:svg="http://www.w3.org/2000/svg"
   xmlns="http://www.w3.org/2000/svg"
   xmlns:sodipodi="http://sodipodi.sourceforge.net/DTD/sodipodi-0.dtd"
   xmlns:inkscape="http://www.inkscape.org/namespaces/inkscape"
   width="500"
   height="500"
   id="svg2"
   version="1.1"
   inkscape:version="0.47 r22583"
   sodipodi:docname="front.svg">
  <defs
     id="defs4">
    <inkscape:perspective
       sodipodi:type="inkscape:persp3d"
       inkscape:vp_x="0 : 526.18109 : 1"
       inkscape:vp_y="0 : 1000 : 0"
       inkscape:vp_z="744.09448 : 526.18109 : 1"
       inkscape:persp3d-origin="372.04724 : 350.78739 : 1"
       id="perspective10" />
    <inkscape:perspective
       id="perspective2902"
       inkscape:persp3d-origin="0.5 : 0.33333333 : 1"
       inkscape:vp_z="1 : 0.5 : 1"
       inkscape:vp_y="0 : 1000 : 0"
       inkscape:vp_x="0 : 0.5 : 1"
       sodipodi:type="inkscape:persp3d" />
    <inkscape:perspective
       id="perspective3796"
       inkscape:persp3d-origin="0.5 : 0.33333333 : 1"
       inkscape:vp_z="1 : 0.5 : 1"
       inkscape:vp_y="0 : 1000 : 0"
       inkscape:vp_x="0 : 0.5 : 1"
       sodipodi:type="inkscape:persp3d" />
  </defs>
  <sodipodi:namedview
     id="base"
     pagecolor="#ffffff"
     bordercolor="#666666"
     borderopacity="1.0"
     inkscape:pageopacity="0.0"
     inkscape:pageshadow="2"
     inkscape:zoom="1.211981"
     inkscape:cx="214.4412"
     inkscape:cy="324.13984"
     inkscape:document-units="px"
     inkscape:current-layer="layer1"
     showgrid="false"
     inkscape:window-width="1920"
     inkscape:window-height="1125"
     inkscape:window-x="0"
     inkscape:window-y="24"
     inkscape:window-maximized="1" />
  <metadata
     id="metadata7">
    <rdf:RDF>
      <cc:Work
         rdf:about="">
        <dc:format>image/svg+xml</dc:format>
        <dc:type
           rdf:resource="http://purl.org/dc/dcmitype/StillImage" />
        <dc:title></dc:title>
      </cc:Work>
    </rdf:RDF>
  </metadata>
  <g
     inkscape:label="Layer 1"
     inkscape:groupmode="layer"
     id="layer1"
     transform="translate(0,-552.36218)">
    <path
       style="fill:#000000;fill-opacity:1;stroke:#ffffff;stroke-width:5;stroke-linecap:butt;stroke-linejoin:miter;stroke-miterlimit:4;stroke-opacity:1;stroke-dasharray:none"
       d="m 109.32514,871.25373 c 0,0 0.41255,11.34507 -6.18821,9.07605 -3.12113,-1.07288 -12.687322,-6.49909 -16.50191,-20.21483 -2.032278,-7.30726 2.31914,-19.33553 -6.188216,-35.89166 -4.18522,-8.14484 -4.419007,-14.00326 -5.36312,-21.24621 -1.484298,-11.38706 -1.192753,-28.74365 -0.412548,-34.44772 1.325973,-9.69417 3.807086,-10.24946 7.838407,-9.4886 3.400864,0.64187 10.726238,13.20152 10.726238,13.20152 l -5.363118,-46.61789 c 0,0 -5.069855,-22.29147 -3.71293,-33.41636 1.996472,-16.36828 9.034438,-32.04087 17.120727,-46.41162 10.06887,-17.89414 22.50539,-34.50072 38.33153,-48.21758 15.82613,-13.71685 36.54588,-23.15318 55.3168,-28.31002 37.54185,-10.3137 76.0362,-6.91553 106.64359,10.72624 29.70343,17.12073 67.8641,39.19203 80.24053,92.41069 10.58659,35.02299 0,84.15973 0,84.15973 0,0 11.34506,-9.69487 15.47054,-1.03136 4.12548,8.6635 4.12547,19.18346 3.30038,26.19677 -0.8251,7.01331 -2.75763,40.05208 -7.83841,47.44298 -4.28566,6.23428 4.12548,12.58272 -3.0941,22.48386 -8.76708,12.02343 -17.40599,15.10885 -20.00857,15.05799 -3.9395,-0.077 -5.28428,-0.66992 -5.77567,-10.31369 -0.22696,26.22863 -6.80704,31.14735 -12.78897,45.99907 -5.47332,13.58894 1.50369,44.07051 -0.61883,72.19585 -1.14361,15.15381 -0.61882,45.58656 -0.61882,45.58656 l -0.8251,29.2908 -201.32328,0 c 0,0 1.23764,-25.5779 -8.25095,-42.0798 -9.4886,-16.50193 -7.01332,-47.85555 -4.95058,-65.59511 2.06274,-17.73955 -4.53802,-29.70343 -7.42586,-35.06655 -2.88783,-5.36312 -17.73955,-35.89165 -17.73955,-35.47911 z"
       id="path3802"
       sodipodi:nodetypes="csssassccaasssccssssscsscccsssc" />
    <text
       xml:space="preserve"
       style="font-size:298.59246826px;font-style:normal;font-weight:normal;fill:#b9b9b9;fill-opacity:1;stroke:#ffffff;stroke-width:7.46481228;stroke-opacity:1;font-family:Bitstream Vera Sans"
       x="156.78313"
       y="855.66919"
       id="text3703"><tspan
         sodipodi:role="line"
         id="tspan3705"
         x="156.78313"
         y="855.66919"
         style="stroke-width:7.46481228">F</tspan></text>
  </g>
</svg>
