<?xml version="1.0" encoding="UTF-8" standalone="no"?>
<!-- Created with Inkscape (http://www.inkscape.org/) -->

<svg
   xmlns:dc="http://purl.org/dc/elements/1.1/"
   xmlns:cc="http://creativecommons.org/ns#"
   xmlns:rdf="http://www.w3.org/1999/02/22-rdf-syntax-ns#"
   xmlns:svg="http://www.w3.org/2000/svg"
   xmlns="http://www.w3.org/2000/svg"
   xmlns:sodipodi="http://sodipodi.sourceforge.net/DTD/sodipodi-0.dtd"
   xmlns:inkscape="http://www.inkscape.org/namespaces/inkscape"
   width="500"
   height="500"
   id="svg2"
   version="1.1"
   inkscape:version="0.47 r22583"
   sodipodi:docname="left.svg">
  <defs
     id="defs4">
    <inkscape:perspective
       sodipodi:type="inkscape:persp3d"
       inkscape:vp_x="0 : 526.18109 : 1"
       inkscape:vp_y="0 : 1000 : 0"
       inkscape:vp_z="744.09448 : 526.18109 : 1"
       inkscape:persp3d-origin="372.04724 : 350.78739 : 1"
       id="perspective10" />
    <inkscape:perspective
       id="perspective2902"
       inkscape:persp3d-origin="0.5 : 0.33333333 : 1"
       inkscape:vp_z="1 : 0.5 : 1"
       inkscape:vp_y="0 : 1000 : 0"
       inkscape:vp_x="0 : 0.5 : 1"
       sodipodi:type="inkscape:persp3d" />
  </defs>
  <sodipodi:namedview
     id="base"
     pagecolor="#ffffff"
     bordercolor="#666666"
     borderopacity="1.0"
     inkscape:pageopacity="0.0"
     inkscape:pageshadow="2"
     inkscape:zoom="1.211981"
     inkscape:cx="250"
     inkscape:cy="250"
     inkscape:document-units="px"
     inkscape:current-layer="layer1"
     showgrid="false"
     inkscape:window-width="1920"
     inkscape:window-height="1125"
     inkscape:window-x="0"
     inkscape:window-y="24"
     inkscape:window-maximized="1" />
  <metadata
     id="metadata7">
    <rdf:RDF>
      <cc:Work
         rdf:about="">
        <dc:format>image/svg+xml</dc:format>
        <dc:type
           rdf:resource="http://purl.org/dc/dcmitype/StillImage" />
      </cc:Work>
    </rdf:RDF>
  </metadata>
  <g
     inkscape:label="Layer 1"
     inkscape:groupmode="layer"
     id="layer1"
     transform="translate(0,-552.36218)">
    <path
       style="fill:#000000;stroke:#ffffff;stroke-width:10;stroke-linecap:butt;stroke-linejoin:miter;stroke-opacity:1;fill-opacity:1;stroke-miterlimit:4;stroke-dasharray:none"
       d="m 160.15927,494.64513 0,-11.19654 c 0,0 -14.11738,-2.92084 -30.18199,-9.73613 -16.0646,-6.81528 -19.47225,-13.14377 -26.28754,-18.49864 -5.106983,-4.01263 -16.551412,-5.35487 -21.906281,-11.68335 -5.35487,-6.32848 -18.49864,-22.39309 -18.49864,-41.86534 2.264402,-8.26772 5.086329,-18.32289 0.486807,-25.80074 -2.434032,-1.94722 -9.24932,-7.30209 -11.196545,-11.19654 -1.947226,-3.89445 1.460419,-14.60419 1.460419,-14.60419 l -0.973613,-8.27571 c 0,0 -9.964273,-4.94622 -11.196545,-9.73612 -1.291847,-5.02148 8.275707,-11.68335 8.275707,-11.68335 0,0 -0.886714,-18.50661 -5.841675,-25.80074 -4.198328,-6.1803 -13.211155,-5.14428 -18.49864,-12.65696 -5.287485,-7.51268 -18.4986392,-5.84168 -8.275707,-31.64241 1.267999,-3.20019 37.965419,-27.76454 51.114662,-45.7598 l 0.486806,-44.29936 C 69.44367,131.34626 78.375815,90.5959 92.980004,76.965323 107.58419,63.334747 145.06828,12.220085 252.65247,9.7860534 360.23666,7.3520219 346.07029,9.831412 385.06379,22.929824 c 10.95838,3.681057 22.39309,24.827121 33.58963,37.970891 11.19655,13.14377 41.37853,57.443145 40.89173,69.613305 -0.48681,12.17016 13.63057,52.08828 2.43404,95.90084 -3.94824,15.44964 -29.20838,67.17926 -42.35216,75.94178 -9.49055,6.32704 -14.43894,27.9906 -21.41947,42.35215 -6.98054,14.36156 -10.70975,26.77435 -15.091,43.32576 -1.37592,5.19793 -4.26809,63.72357 2.92084,80.80985 11.53215,4.1555 29.69518,0.4868 47.22021,11.68335 17.52503,11.19654 21.90628,14.60419 21.90628,14.60419 l -295.00462,-0.48681 z"
       id="path2929"
       transform="translate(0,552.36218)"
       sodipodi:nodetypes="ccsssccsccscazscsssssssszscscc" />
    <text
       xml:space="preserve"
       style="font-size:298.59246826px;font-style:normal;font-weight:normal;fill:#b9b9b9;fill-opacity:1;stroke:#ffffff;stroke-width:7.46481228;stroke-opacity:1;font-family:Bitstream Vera Sans"
       x="163.38388"
       y="843.29272"
       id="text3703"><tspan
         sodipodi:role="line"
         id="tspan3705"
         x="163.38388"
         y="843.29272"
         style="stroke-width:7.46481228">L</tspan></text>
  </g>
</svg>
