<?xml version="1.0" encoding="UTF-8" standalone="no"?>
<!-- Created with Inkscape (http://www.inkscape.org/) -->

<svg
   xmlns:dc="http://purl.org/dc/elements/1.1/"
   xmlns:cc="http://creativecommons.org/ns#"
   xmlns:rdf="http://www.w3.org/1999/02/22-rdf-syntax-ns#"
   xmlns:svg="http://www.w3.org/2000/svg"
   xmlns="http://www.w3.org/2000/svg"
   xmlns:sodipodi="http://sodipodi.sourceforge.net/DTD/sodipodi-0.dtd"
   xmlns:inkscape="http://www.inkscape.org/namespaces/inkscape"
   width="500"
   height="500"
   id="svg2"
   version="1.1"
   inkscape:version="0.47 r22583"
   sodipodi:docname="right.svg">
  <defs
     id="defs4">
    <inkscape:perspective
       sodipodi:type="inkscape:persp3d"
       inkscape:vp_x="0 : 526.18109 : 1"
       inkscape:vp_y="0 : 1000 : 0"
       inkscape:vp_z="744.09448 : 526.18109 : 1"
       inkscape:persp3d-origin="372.04724 : 350.78739 : 1"
       id="perspective10" />
    <inkscape:perspective
       id="perspective2902"
       inkscape:persp3d-origin="0.5 : 0.33333333 : 1"
       inkscape:vp_z="1 : 0.5 : 1"
       inkscape:vp_y="0 : 1000 : 0"
       inkscape:vp_x="0 : 0.5 : 1"
       sodipodi:type="inkscape:persp3d" />
  </defs>
  <sodipodi:namedview
     id="base"
     pagecolor="#ffffff"
     bordercolor="#666666"
     borderopacity="1.0"
     inkscape:pageopacity="0.0"
     inkscape:pageshadow="2"
     inkscape:zoom="1.211981"
     inkscape:cx="250"
     inkscape:cy="250"
     inkscape:document-units="px"
     inkscape:current-layer="layer1"
     showgrid="false"
     inkscape:window-width="1920"
     inkscape:window-height="1125"
     inkscape:window-x="0"
     inkscape:window-y="24"
     inkscape:window-maximized="1" />
  <metadata
     id="metadata7">
    <rdf:RDF>
      <cc:Work
         rdf:about="">
        <dc:format>image/svg+xml</dc:format>
        <dc:type
           rdf:resource="http://purl.org/dc/dcmitype/StillImage" />
        <dc:title></dc:title>
      </cc:Work>
    </rdf:RDF>
  </metadata>
  <g
     inkscape:label="Layer 1"
     inkscape:groupmode="layer"
     id="layer1"
     transform="translate(0,-552.36218)">
    <path
       style="fill:#000000;fill-opacity:1;stroke:#ffffff;stroke-width:10;stroke-linecap:butt;stroke-linejoin:miter;stroke-miterlimit:4;stroke-opacity:1;stroke-dasharray:none"
       d="m 319.89988,1047.0073 0,-11.1965 c 0,0 14.11738,-2.9209 30.18199,-9.7362 16.0646,-6.8152 19.47225,-13.1437 26.28754,-18.4986 5.10698,-4.0126 16.55141,-5.3549 21.90628,-11.68335 5.35487,-6.32848 18.49864,-22.39309 18.49864,-41.86534 -2.26441,-8.26772 -5.08633,-18.32289 -0.48681,-25.80074 2.43403,-1.94722 9.24932,-7.30209 11.19654,-11.19654 1.94723,-3.89445 -1.46041,-14.60419 -1.46041,-14.60419 l 0.97361,-8.27571 c 0,0 9.96427,-4.94622 11.19654,-9.73612 1.29185,-5.02148 -8.2757,-11.68335 -8.2757,-11.68335 0,0 0.88671,-18.50661 5.84167,-25.80074 4.19833,-6.1803 13.21116,-5.14428 18.49864,-12.65696 5.28749,-7.51268 18.49864,-5.84168 8.27571,-31.64241 -1.268,-3.20019 -37.96542,-27.76454 -51.11466,-45.7598 l -0.48681,-44.29936 c -0.31717,-28.86295 -9.24932,-69.61331 -23.85351,-83.24389 -14.60418,-13.63057 -52.08827,-64.74523 -159.67246,-67.17927 -107.58419,-2.43403 -93.41782,0.0454 -132.411325,13.14377 -10.95838,3.68106 -22.39309,24.82713 -33.58963,37.9709 -11.19655,13.14377 -41.37853,57.44314 -40.89173,69.6133 0.48681,12.17016 -13.6305697,52.08828 -2.43404,95.90084 3.94824,15.44964 29.20838,67.17926 42.35216,75.94178 9.49055,6.32704 14.43894,27.9906 21.41947,42.35215 6.98054,14.36156 10.70975,26.77435 15.091,43.32576 1.37592,5.19793 4.268095,63.72357 -2.92084,80.80987 -11.53215,4.1555 -29.69518,0.4868 -47.22021,11.6833 -17.52503,11.1966 -21.90628,14.6042 -21.90628,14.6042 l 295.004625,-0.4868 z"
       id="path2929"
       sodipodi:nodetypes="ccsssccsccscazscsssssssszscscc" />
    <text
       xml:space="preserve"
       style="font-size:298.59246826px;font-style:normal;font-weight:normal;fill:#b9b9b9;fill-opacity:1;stroke:#ffffff;stroke-width:7.46481228;stroke-opacity:1;font-family:Bitstream Vera Sans"
       x="106.45229"
       y="843.29272"
       id="text3703"><tspan
         sodipodi:role="line"
         id="tspan3705"
         x="106.45229"
         y="843.29272"
         style="stroke-width:7.46481228">R</tspan></text>
  </g>
</svg>
