/* XPM */
static const char * vtkQtPlugin_xpm[] = {
"22 22 50 1",
" 	c None",
".	c #525252",
"+	c #404040",
"@	c #414141",
"#	c #4D4D4D",
"$	c #2D2D2D",
"%	c #262626",
"&	c #3F3F3F",
"*	c #535353",
"=	c #4F4F4F",
"-	c #4A4A4A",
";	c #5F5F5F",
">	c #444444",
",	c #454545",
"'	c #5A5A5A",
")	c #5B5B5B",
"!	c #2A2A2A",
"~	c #696969",
"{	c #323232",
"]	c #3B3B3B",
"^	c #292929",
"/	c #3D3D3D",
"(	c #313131",
"_	c #282828",
":	c #434343",
"<	c #5D5D5D",
"[	c #3C3C3C",
"}	c #363636",
"|	c #565656",
"1	c #494949",
"2	c #373737",
"3	c #2E2E2E",
"4	c #585858",
"5	c #424242",
"6	c #343434",
"7	c #393939",
"8	c #5E5E5E",
"9	c #505050",
"0	c #3E3E3E",
"a	c #2F2F2F",
"b	c #484848",
"c	c #4B4B4B",
"d	c #515151",
"e	c #555555",
"f	c #595959",
"g	c #707070",
"h	c #464646",
"i	c #575757",
"j	c #616161",
"k	c #6D6D6D",
"       .+@            ",
"     #+$%%&           ",
"   *=-; >%,           ",
" ')     @!)           ",
"~;      {]            ",
"        ^/            ",
"        (_:<          ",
"        ]%%^@;        ",
"        [%%%%!>       ",
"        &%%%%%%}|     ",
"        1%%%%%%%!*    ",
"         2%%%%%%%34   ",
"          5%%%%%%%6   ",
"           [%%%%%%%7  ",
"            ]89:0a%%: ",
"            b)    c[!4",
"            *24     ;)",
"            d=        ",
"            ')        ",
"           efb        ",
"        g;h]9i        ",
"         j) 'k        "};
